<svg width="20" height="20" viewBox="0 0 20 20" fill="none" xmlns="http://www.w3.org/2000/svg">
<g clip-path="url(#clip0_1205_150)">
<path d="M19.4574 0.218777C19.852 0.492215 20.059 0.964871 19.9848 1.43753L17.4848 17.6875C17.4262 18.0664 17.1957 18.3985 16.8598 18.586C16.5238 18.7735 16.1215 18.7969 15.766 18.6485L11.0942 16.7071L8.41838 19.6016C8.07072 19.9805 7.52384 20.1055 7.04338 19.918C6.56291 19.7305 6.25041 19.2657 6.25041 18.75V15.4844C6.25041 15.3282 6.309 15.1797 6.41447 15.0664L12.9613 7.9219C13.1879 7.67581 13.1801 7.2969 12.9457 7.06253C12.7113 6.82815 12.3324 6.81253 12.0863 7.03518L4.14103 14.0938L0.691813 12.3672C0.277751 12.1602 0.0121256 11.7461 0.000406857 11.2852C-0.0113119 10.8242 0.230876 10.3946 0.629313 10.1641L18.1293 0.16409C18.5473 -0.0741915 19.0629 -0.050754 19.4574 0.218777Z" fill="#00D4AA"/>
</g>
<defs>
<clipPath id="clip0_1205_150">
<path d="M0 0H20V20H0V0Z" fill="white"/>
</clipPath>
</defs>
</svg>
